<?xml version="1.0" encoding="UTF-8"?><svg id="a" xmlns="http://www.w3.org/2000/svg" viewBox="0 0 238.93 55.73"><defs><style>.b{fill:#ef7d00;}</style></defs><g><path class="b" d="M50.88,23.62c-.44-7.34-1.44-11.76-7.88-14.49-8.29-3.51-19.76-1.33-22.5-.66-1.43,1.39-2.49,2.83-3.03,3.58,1.49-.16,4.83-.51,8.43-.27,.7-.92,2.63-2.92,5.46-2.57,2.74,.34,1.34,2.9,.84,3.6,7.06,2.08,6.97,6.31,5.26,12.98-1.54,5.99-4.33,14-4.49,23.92,0,0,5.3-1.36,10.54-2.53,4.64-1.04,9.4-1.93,9.4-1.93-2.11-9.62-1.7-16.19-2.02-21.63Z"/><path class="b" d="M33.17,25.88c1.97-5.35,2.85-8.61-.67-10.47-6.65-3.52-20.51-1.26-22.9-.64-1.04,1.01-3.02,3-4.89,5.96,6.03-2.14,14.58-2.77,17.53-1.26,3.86,1.98-7.88,9.62-16.12,30.23,0,0,6.28-1.49,11.19-2.53,4.91-1.04,9.92-1.89,9.92-1.89,1.4-8.45,3.94-13.97,5.95-19.41Z"/></g><g><path class="b" d="M85.53,42.62c-9.87,0-15.62-5.21-15.62-13.67s5.44-13.27,16.04-13.27c2.49,0,4.92,.26,7.37,.78v6.87c-2.25-.85-4.5-1.26-6.81-1.26-4.6,0-7.2,2.62-7.2,7.28,0,4.32,2.11,6.99,5.72,6.99,.28,0,.74-.04,1.26-.07v-6.99h7.97v12.01c-2.88,.93-5.76,1.33-8.74,1.33Z"/><path class="b" d="M119.23,40.7c-2.53,1.29-6.25,1.29-11.23,1.29h-8V16.35h10.57c4.04,0,7.2,.15,9.65,1.77,3.34,2.22,5.16,6.1,5.16,11.27,0,5.43-2.04,9.2-6.14,11.31Zm-8.04-18.26h-2.04v13.19h2.46c2.7,0,4.28-2.22,4.28-6.25,0-4.77-1.51-6.95-4.7-6.95Z"/><path class="b" d="M149.56,40.7c-2.53,1.29-6.25,1.29-11.24,1.29h-8V16.35h10.57c4.04,0,7.2,.15,9.65,1.77,3.34,2.22,5.16,6.1,5.16,11.27,0,5.43-2.04,9.2-6.14,11.31Zm-8.04-18.26h-2.04v13.19h2.46c2.7,0,4.28-2.22,4.28-6.25,0-4.77-1.51-6.95-4.7-6.95Z"/><path class="b" d="M175.89,42l-6.04-11.09v11.09h-9.2V16.35h9.2v9.9l5.83-9.9h10.53l-8.04,11.68,8.95,13.97h-11.23Z"/><path class="b" d="M190.21,20.6v-6.32h8.64v6.32h-8.64Zm0,21.4V22.67h8.64v19.33h-8.64Z"/><path class="b" d="M222.44,42l-1.58-5.54h-7.86l-1.47,5.54h-9.34l8.57-25.65h12.78l8.53,25.65h-9.62Zm-5.48-20.25l-2.74,8.61h5.51l-2.77-8.61Z"/></g></svg>