<?xml version="1.0" encoding="UTF-8"?>
<!-- Created with Inkscape (http://www.inkscape.org/) -->
<svg width="143mm" height="28.5mm" version="1.1" viewBox="0 0 143 28.5" xmlns="http://www.w3.org/2000/svg" xmlns:cc="http://creativecommons.org/ns#" xmlns:dc="http://purl.org/dc/elements/1.1/" xmlns:rdf="http://www.w3.org/1999/02/22-rdf-syntax-ns#">
 <metadata>
  <rdf:RDF>
   <cc:Work rdf:about="">
    <dc:format>image/svg+xml</dc:format>
    <dc:type rdf:resource="http://purl.org/dc/dcmitype/StillImage"/>
    <dc:title/>
   </cc:Work>
  </rdf:RDF>
 </metadata>
 <g transform="translate(0,-268.5)">
  <g transform="matrix(.26458 0 0 .26458 -62.349 26.243)">
   <g transform="translate(302.45 999.79)">
    <path d="m0 0c-14.72 0-26.56-12-26.56-26.72s11.84-26.72 26.56-26.72h15.36c-4.8-2.72-9.92-4-15.36-4.16h-0.96c-0.32 0.16-0.64 0.16-0.96 0.16-6.88 0.32-13.12 2.88-18.72 7.84-6.08 5.6-9.44 12.48-9.92 20.48v0.8c-0.16 0.48-0.16 0.96-0.16 1.44v0.16c0 0.48 0 1.12 0.16 1.6 0 0.64 0 1.28 0.16 1.76 0.64 7.2 3.52 13.28 8.64 18.4 5.6 5.6 12.16 8.48 19.84 8.96h1.92c5.6 0 10.72-1.44 15.36-4h0.16z" fill="#242021"/>
   </g>
   <g fill="#fff">
    <g transform="translate(388.37 943.79)">
     <path d="m0 0v6.4c-1.44-1.44-3.04-2.72-4.64-3.84-1.28-0.8-2.56-1.6-3.84-2.08-3.04-1.44-6.4-2.08-9.92-2.08h-0.8c-4.96 0.16-9.44 1.6-13.44 4.16h13.44c14.72 0 26.56 12 26.56 26.72s-11.84 26.72-26.56 26.72h-12.8c4 2.4 8.32 3.84 12.96 4 5.92-0.16 11.52-2.08 16.16-5.12 0.96-0.8 1.92-1.6 2.88-2.56v27.68h14.72v-80z" fill="#fff"/>
    </g>
    <g transform="translate(454.61 943.79)">
     <path d="m0 0v28.64c0 5.6-0.32 9.12-0.8 10.88-0.96 2.24-2.08 3.84-3.84 5.12-1.76 1.12-3.84 1.76-6.24 1.76s-4.48-0.64-6.24-1.76c-1.6-1.28-2.88-2.88-3.52-5.12-0.8-2.08-1.28-5.92-1.28-11.36v-28.16h-14.72v24.32c0 9.44 0.48 15.84 1.6 19.36 1.6 5.12 4.48 9.12 8.48 12 3.84 2.88 9.12 4.32 15.52 4.32 5.92 0 10.88-1.28 14.72-3.68s6.72-5.92 8.64-10.56c1.6-3.84 2.4-10.72 2.4-20.96v-24.8z" fill="#fff"/>
    </g>
    <g transform="translate(496.21 965.71)">
     <path d="m0 0c1.6-3.68 3.52-6.08 5.44-7.52 3.04-2.4 6.56-3.52 10.72-3.52 3.84 0 7.04 0.96 9.92 3.04s4.8 4.8 5.76 8zm46.56 8.8c0-9.76-2.88-17.44-8.64-23.36s-13.28-8.96-22.4-8.96c-8.8 0-16 3.04-21.76 8.96s-8.64 13.28-8.64 22.24c0 8.64 2.88 16 8.64 21.76s13.28 8.64 22.56 8.64c5.92 0 11.04-0.96 15.2-3.2 4.32-2.08 8-5.28 11.2-9.6l-12.48-5.92c-3.84 3.84-8.64 5.76-14.08 5.76-4.64 0-8.32-1.12-11.36-3.68-2.88-2.4-4.8-5.76-5.44-9.92h47.2z" fill="#fff"/>
    </g>
    <g transform="translate(605.97 984.91)">
     <path d="m0 0c-2.24 3.84-4.96 6.72-8.64 8.8-3.52 2.08-7.36 3.2-11.36 3.2-4.16 0-8-1.12-11.68-3.2s-6.56-4.8-8.64-8.48c-1.92-3.52-2.88-7.52-2.88-11.84 0-6.88 2.24-12.48 6.72-17.12 4.32-4.48 9.92-6.72 16.32-6.72 4.32 0 8.16 0.96 11.68 3.04s6.4 4.96 8.48 8.64c2.08 3.84 3.04 7.68 3.04 11.84s-0.96 8.16-3.04 11.84zm1.92-33.76c-5.92-5.92-13.12-8.96-21.44-8.96-4.8 0-8.96 1.12-12.96 3.04-3.84 2.08-7.2 5.12-10.24 9.28v-10.72h-7.52v80h7.52v-31.52c3.2 3.84 6.72 6.72 10.56 8.64 4 1.92 8.32 2.88 12.96 2.88 8.16 0 15.36-3.04 21.12-8.96 5.92-6.08 8.8-13.44 8.8-21.92s-2.88-15.68-8.8-21.76z" fill="#fff"/>
    </g>
    <g transform="translate(-45.714 585.71)">
     <path d="m675.36 335.36h7.68v81.28h-7.68z" fill="#fff"/>
    </g>
    <g transform="translate(701.33 985.23)">
     <path d="m0 0c-2.08 3.68-4.8 6.4-8.64 8.48-3.68 2.08-7.52 3.2-11.68 3.2-4 0-7.84-1.12-11.52-3.2-3.52-2.08-6.4-4.96-8.48-8.8-2.08-3.68-3.2-7.68-3.2-11.84s1.12-8 3.2-11.84c2.08-3.68 4.96-6.56 8.48-8.64s7.36-3.04 11.68-3.04c6.4 0 12 2.24 16.48 6.72 4.32 4.64 6.56 10.24 6.56 17.12 0 4.32-0.96 8.32-2.88 11.84zm2.4-41.44v10.72c-2.88-4.16-6.24-7.2-10.24-9.28-3.84-1.92-8.16-3.04-12.96-3.04-8.32 0-15.52 3.04-21.44 8.96-5.92 6.08-8.8 13.28-8.8 21.76s2.88 15.84 8.8 21.92c5.76 5.92 12.96 8.96 21.12 8.96 4.64 0 8.96-0.96 12.96-2.88 3.84-1.92 7.52-4.8 10.56-8.64v10.08h7.52v-58.56z" fill="#fff"/>
    </g>
    <g transform="translate(769.49 943.79)">
     <path d="m0 0-19.52 45.12-20.16-45.12h-8l24.16 54.08-11.36 25.92h8l34.88-80z" fill="#fff"/>
    </g>
   </g>
   <g transform="translate(369.17 999.79)">
    <path d="m0 0h-66.72c-14.72 0-26.56-12-26.56-26.72s11.84-26.72 26.56-26.72h66.72c14.72 0 26.56 12 26.56 26.72s-11.84 26.72-26.56 26.72zm19.2-50.08c-1.44-1.28-2.88-2.4-4.64-3.36-4.32-2.56-9.28-4-14.56-4.16h-66.72c-8.48 0.16-16 3.52-21.6 9.12-5.12 4.96-8.32 11.84-8.96 19.36v0.8c-0.16 0.48-0.16 0.96-0.16 1.44v0.16c0 0.48 0 1.12 0.16 1.6 0.8 16.16 14.24 29.12 30.56 29.12h66.88c5.92-0.16 11.52-2.08 16.16-5.12 0.96-0.64 1.92-1.44 2.88-2.24 0.64-0.48 1.28-1.12 1.76-1.6 5.6-5.6 9.12-13.28 9.12-21.76 0-9.44-4.16-17.76-10.88-23.36z" fill="#cc3032"/>
   </g>
   <g transform="translate(303.09 965.39)">
    <path d="m0 0v16.8c0 1.12-0.96 2.08-2.08 2.08-1.28 0-2.24-0.96-2.24-2.08v-16.8c0-1.12 0.96-2.08 2.24-2.08 1.12 0 2.08 0.96 2.08 2.08z" fill="#cc3032"/>
   </g>
   <g transform="translate(393.65 973.23)">
    <path d="m0 0c0 13.76-11.04 24.8-24.8 24.8-13.6 0-24.8-11.04-24.8-24.8s11.2-24.8 24.8-24.8c13.76 0 24.8 11.04 24.8 24.8z" fill="#cc3032"/>
   </g>
   <g transform="translate(360.05 957.71)">
    <path d="m0 0c-0.48 0-0.8 0.32-0.8 0.64v30.88c0 0.32 0.32 0.64 0.8 0.64s0.8-0.32 0.8-0.64v-30.88c0-0.32-0.32-0.64-0.8-0.64z" fill="#fff"/>
   </g>
   <g transform="translate(373.97 957.71)">
    <path d="m0 0c-0.48 0-0.8 0.32-0.8 0.64v30.88c0 0.32 0.32 0.64 0.8 0.64s0.8-0.32 0.8-0.64v-30.88c0-0.32-0.32-0.64-0.8-0.64z" fill="#fff"/>
   </g>
   <g transform="translate(363.09 961.07)">
    <path d="m0 0c-0.64 0-0.96 0.32-0.96 0.8v8c0 0.48 0.32 0.8 0.96 0.8 0.48 0 0.8-0.32 0.8-0.8v-8c0-0.48-0.32-0.8-0.8-0.8z" fill="#fff"/>
   </g>
   <g transform="translate(357.17 961.07)">
    <path d="m0 0c-0.48 0-0.96 0.32-0.96 0.8v8c0 0.48 0.48 0.8 0.96 0.8s0.8-0.32 0.8-0.8v-8c0-0.48-0.32-0.8-0.8-0.8z" fill="#fff"/>
   </g>
   <g transform="translate(376.85 959.95)">
    <path d="m0 0c-0.48 0-0.96 0.48-0.96 0.8v10.24c0 0.32 0.48 0.64 0.96 0.64s0.96-0.32 0.96-0.64v-10.24c0-0.32-0.48-0.8-0.96-0.8z" fill="#fff"/>
   </g>
   <g transform="translate(379.89 961.39)">
    <path d="m0 0c-0.48 0-0.8 0.16-0.8 0.64v7.68c0 0.32 0.32 0.64 0.8 0.64s0.8-0.32 0.8-0.64v-7.68c0-0.48-0.32-0.64-0.8-0.64z" fill="#fff"/>
   </g>
   <g transform="translate(382.45 962.51)">
    <path d="m0 0c-0.48 0-0.8 0.32-0.8 0.8v5.12c0 0.48 0.32 0.8 0.8 0.8s0.96-0.32 0.96-0.8v-5.12c0-0.48-0.48-0.8-0.96-0.8z" fill="#fff"/>
   </g>
   <g transform="translate(242.29 915.15)" fill="#fff">
    <path d="m0 0h15.68v23.2h9.44v13.44h-9.44v49.12h-15.68v-49.12h-8v-13.44h8z" fill="#fff"/>
   </g>
  </g>
 </g>
</svg>
